<?xml version="1.0" encoding="utf-8"?>
<!-- Generator: Adobe Illustrator 19.0.0, SVG Export Plug-In . SVG Version: 6.00 Build 0)  -->
<svg version="1.1" id="Layer_1" xmlns="http://www.w3.org/2000/svg" xmlns:xlink="http://www.w3.org/1999/xlink" x="0px" y="0px"
	 viewBox="-239.5 369 86.8 77.8" style="enable-background:new -239.5 369 86.8 77.8;" xml:space="preserve">
<style type="text/css">
	.st0{fill:#ffffff;}
</style>
<g>
	<path class="st0" d="M-200.8,426.9l1,1c1,1,2.3,1.5,3.6,1.5s2.6-0.5,3.6-1.5l1-1h0.6v-0.4l21.3-21.3l-7.3-7.3l-13.8,13.9V369h-10.4
		v42.8l-13.9-14l-7.3,7.3l21.3,21.3v0.5C-201.2,426.9-200.8,426.9-200.8,426.9z"/>
	<path class="st0" d="M-239.5,426.2c0,11.3,9.3,20.6,20.6,20.6h45.6c11.3,0,20.6-9.3,20.6-20.6v-5.4h-10.2v5.5
		c0,5.7-4.6,10.3-10.3,10.3h-45.6c-5.7,0-10.3-4.6-10.3-10.3v-5.5h-10.4V426.2z"/>
</g>
</svg>
