<?xml version="1.0" encoding="utf-8"?>
<!-- Generator: Adobe Illustrator 19.0.0, SVG Export Plug-In . SVG Version: 6.00 Build 0)  -->
<svg version="1.1" id="Layer_1" xmlns="http://www.w3.org/2000/svg" xmlns:xlink="http://www.w3.org/1999/xlink" x="0px" y="0px"
	 viewBox="-231.9 283.4 53.8 46.2" style="enable-background:new -231.9 283.4 53.8 46.2;" xml:space="preserve">
<style type="text/css">
	.st0{fill:#FFFFFF;}
</style>
<path class="st0" d="M-202.9,284.3c-0.1-0.1-1-0.9-2.1-0.9s-1.9,0.7-2.1,0.9l-11.1,11.1c-1.1,1.1-1.1,2.9,0,4c1.1,1.1,2.9,1.1,4,0
	l6.4-6.4v25.8c0,1.6,1.3,2.8,2.8,2.8c1.6,0,2.8-1.3,2.8-2.8v-25.8l6.4,6.4c1.1,1.1,2.9,1.1,4,0c1.1-1.1,1.1-2.9,0-4L-202.9,284.3z"
	/>
<path class="st0" d="M-178.1,314.7v-0.2h0c-0.1-1.1-1-1.9-2.1-1.9s-2,0.8-2.1,1.9h0v0.1c0,0,0,0.1,0,0.1s0,0.1,0,0.1v5.2
	c0,2.9-1.7,5.3-3.6,5.3H-224c-2,0-3.6-2.4-3.6-5.3v-5.6h0c-0.1-1.1-1-1.9-2.1-1.9s-2,0.8-2.1,1.9h0v0.1c0,0,0,0.1,0,0.1s0,0.1,0,0.1
	v5.2c0,5.3,3.5,9.6,7.9,9.6h38.1c4.3,0,7.9-4.3,7.9-9.6L-178.1,314.7C-178.1,314.7-178.1,314.7-178.1,314.7
	C-178.1,314.7-178.1,314.7-178.1,314.7z"/>
</svg>
