<?xml version="1.0" encoding="utf-8"?>
<!-- Generator: Adobe Illustrator 19.0.0, SVG Export Plug-In . SVG Version: 6.00 Build 0)  -->
<svg version="1.1" id="Layer_1" xmlns="http://www.w3.org/2000/svg" xmlns:xlink="http://www.w3.org/1999/xlink" x="0px" y="0px"
	 viewBox="0 0 133.9 154.4" style="enable-background:new 0 0 133.9 154.4;" xml:space="preserve">
<style type="text/css">
	.st0{fill:#FFFFFF;stroke:#FFFFFF;stroke-width:5.0213;stroke-miterlimit:10;}
	.st1{fill:#3DB2E6;}
	.st2{fill:#2791CE;}
</style>
<polygon class="st0" points="66.8,151.5 2.5,114.2 2.7,39.9 67.1,2.9 131.4,40.2 131.2,114.5 "/>
<polyline class="st1" points="67.2,138.4 14.1,108 14,46.9 66.9,16.2 66.9,2.9 2.5,40.2 2.6,114.7 67.2,151.8 "/>
<polyline class="st2" points="66.6,138.5 119.6,108 119.8,46.9 66.9,16.2 66.9,2.9 131.3,40.2 131.1,114.7 66.6,151.8 "/>
<polygon class="st2" points="66.9,20.8 115.8,48.7 115.8,68.1 99.4,58.2 99.4,114.3 83.7,123.5 83.6,49.5 66.9,39.6 "/>
<polygon class="st1" points="50.3,82.8 50.3,104.6 34.6,95.3 34.6,58.3 50.3,49 66.9,39.6 66.9,20.8 18.1,48.6 18.1,104.7 
	66.9,133.2 66.9,82.8 "/>
</svg>
