<?xml version="1.0" encoding="utf-8"?>
<!-- Generator: Adobe Illustrator 19.0.0, SVG Export Plug-In . SVG Version: 6.00 Build 0)  -->
<svg version="1.1" id="Layer_1" xmlns="http://www.w3.org/2000/svg" xmlns:xlink="http://www.w3.org/1999/xlink" x="0px" y="0px"
	 viewBox="0 0 612 612" style="enable-background:new 0 0 612 612;" xml:space="preserve">
<style type="text/css">
	.st0{display:none;}
	.st1{display:inline;fill:#ffffff;}
	.st2{display:none;fill:#ffffff;}
	.st3{fill:#ffffff;}
</style>
<g id="XMLID_6_" class="st0">
	<path id="XMLID_7_" class="st1" d="M524,581.7c0,14.1-11.5,25.6-25.6,25.6H113.6c-14.1,0-25.6-11.5-25.6-25.6V30.3
		c0-14.1,11.5-25.6,25.6-25.6h384.7c14.1,0,25.6,11.5,25.6,25.6V581.7z M408.6,389.4H203.4V415h205.2V389.4z M382.9,440.6H229.1
		v25.6h153.9V440.6z M306,107.2c-56.4,0-102.6,46.2-102.6,102.6S249.6,312.4,306,312.4s102.6-46.2,102.6-102.6
		S362.4,107.2,306,107.2z"/>
</g>
<path id="XMLID_10_" class="st2" d="M519.2,597.1H90.8c-10.6,0-19.8-8.4-19.8-19.8V32.6c0-10.6,8.4-19.8,19.8-19.8h428.5
	c10.6,0,19.8,8.4,19.8,19.8v544.7C538.2,588.8,529.9,597.1,519.2,597.1z M169,363.9h155.7c10.6,0,19.8-8.4,19.8-19.8
	c0-11.4-8.4-19.8-19.8-19.8H169c-10.6,0-19.8,8.4-19.8,19.8C149.3,355.5,158.4,363.9,169,363.9z M441,91.1H169
	c-10.6,0-19.8,8.4-19.8,19.8s8.4,19.8,19.8,19.8h272.7c10.6,0,19.8-8.4,19.8-19.8S451.6,91.1,441,91.1z M441,169.4H169
	c-10.6,0-19.8,8.4-19.8,19.8c0,10.6,8.4,19.8,19.8,19.8h272.7c10.6,0,19.8-8.4,19.8-19.8C460.7,177.7,451.6,169.4,441,169.4z
	 M441,246.9H169c-10.6,0-19.8,8.4-19.8,19.8c0,11.4,8.4,19.8,19.8,19.8h272.7c10.6,0,19.8-8.4,19.8-19.8
	C461.5,255.2,451.6,246.9,441,246.9z"/>
<g id="XMLID_37_" class="st0">
	<path id="XMLID_19_" class="st1" d="M575.9,138.5c0-9.6-7.8-17.4-17.4-17.4H51.5c-9.6,0-17.4,7.8-17.4,17.4v54.1h541.8V138.5z"/>
	<path id="XMLID_16_" class="st1" d="M575.9,254.3H34.1v217.2c0,9.6,7.8,17.4,17.4,17.4h506.9c9.6,0,17.4-7.8,17.4-17.4L575.9,254.3
		L575.9,254.3z M518.4,421.9H385.9v-96.3h132.4V421.9z"/>
</g>
<path id="XMLID_30_" class="st3" d="M178.9,398.3c-41.3,0-74.7,33.4-74.7,74.6s33.4,74.6,74.7,74.6c41.1,0,74.6-33.4,74.6-74.6
	S220,398.3,178.9,398.3z M178.9,498.5c-14.2,0-25.7-11.5-25.7-25.7s11.5-25.7,25.7-25.7c14.2,0,25.7,11.5,25.7,25.7
	S193.1,498.5,178.9,498.5z M589.2,309.1l-28.2-126.7c-2.8-12.5-15.3-22.5-28-22.5H411.3c-12.7,0-23,10.3-23,23v198
	c15.7-9.1,33.7-14.3,53-14.3c49.4,0,90.9,33.9,102.7,79.7h18.9c17.4,0,31.5-14.1,31.5-31.5v-60C594.3,341.9,591.9,321.6,589.2,309.1
	z M522.2,293.5h-72.9c-12.7,0-23-10.3-23-23v-49.4c0-12.7,10.3-23,23-23h53.8c12.7,0,25.1,10.2,27.6,22.7l10,50.2
	C543.3,283.4,535,293.5,522.2,293.5z M375.8,389.2V108.8c0-25.3-20.8-46.2-46.2-46.2H61.7c-25.3,0-46,20.7-46,46.2v291.3
	c0,25.3,20.7,46.2,46,46.2H76c11.9-45.8,53.4-79.7,102.9-79.7c49.4,0,90.9,33.9,102.7,79.7h48c3.1,0,6-0.4,8.8-0.9
	C344.6,422.7,357.9,403.2,375.8,389.2z M296.7,323.1H97.3c-8,0-14.3-6.4-14.3-14.3c0-8,6.4-14.3,14.3-14.3h199.5
	c8,0,14.3,6.4,14.3,14.3C311.1,316.7,304.6,323.1,296.7,323.1z M296.7,248H97.3c-8,0-14.3-6.4-14.3-14.3s6.4-14.3,14.3-14.3h199.5
	c8,0,14.3,6.4,14.3,14.3S304.6,248,296.7,248z M296.7,172.9H97.3c-8,0-14.3-6.4-14.3-14.3c0-8,6.4-14.3,14.3-14.3h199.5
	c8,0,14.3,6.4,14.3,14.3C311.1,166.6,304.6,172.9,296.7,172.9z M441.2,398.3c-41.3,0-74.7,33.4-74.7,74.6s33.4,74.6,74.7,74.6
	c41.1,0,74.6-33.4,74.6-74.6C515.6,431.7,482.3,398.3,441.2,398.3z M441.1,498.5c-14.2,0-25.7-11.5-25.7-25.7s11.5-25.7,25.7-25.7
	s25.6,11.5,25.6,25.7C466.8,487,455.3,498.5,441.1,498.5z"/>
<g id="XMLID_38_" class="st0">
	<path id="XMLID_41_" class="st1" d="M576.4,92.4h-36c-10,0-18,8.1-18,18V276c-5.8-2.1-11.9-3.3-18-3.3h-18V74.4
		c0-29.9-24.2-54.1-54.1-54.1H179.8c-29.9,0-54.1,24.2-54.1,54.1v198.3h-18c-6.2,0.1-12.3,1.2-18,3.3V110.5c0-10-8.1-18-18-18h-36
		c-10,0-18,8.1-18,18s8.1,18,18,18h18V507c0,10,8.1,18,18,18h18v54.1c0,10,8.1,18,18,18h72.1c10,0,18-8.1,18-18V525h216.3v54.1
		c0,10,8.1,18,18,18h72.1c10,0,18-8.1,18-18V525h18c10,0,18-8.1,18-18V128.5h18c10,0,18-8.1,18-18S586.3,92.4,576.4,92.4z
		 M125.8,489c-19.9,0-36-16.1-36-36s16.1-36,36-36s36,16.1,36,36S145.7,489,125.8,489z M414.1,489H197.9V326.8c0-10,8.1-18,18-18
		h180.2c10,0,18,8.1,18,18V489z M161.8,236.6V92.4h288.4v144.2H161.8z M486.2,489c-19.9,0-36-16.1-36-36s16.1-36,36-36
		c19.9,0,36,16.1,36,36S506.1,489,486.2,489z"/>
	<rect id="XMLID_31_" x="270" y="416.9" class="st1" width="72.1" height="36"/>
	<rect id="XMLID_29_" x="270" y="344.8" class="st1" width="72.1" height="36"/>
</g>
<g id="XMLID_39_" class="st0">
	<path id="XMLID_43_" class="st1" d="M307.4,280.3c60.8,0,110.8-49.4,110.8-110.8S368.9,58.6,307.4,58.6S196.5,108,196.5,169.5
		C196.5,230.9,246.4,280.3,307.4,280.3z"/>
	<path id="XMLID_42_" class="st1" d="M99.4,528.2v5.5c0,7.7,6,13.7,13.7,13.7h387.8c6.2,0,11.2-3.9,13-9.3
		c-54.4-54.3-129.6-87.9-212.6-87.9C223.8,450.3,152.9,479.8,99.4,528.2z"/>
	<path id="XMLID_40_" class="st1" d="M529.4,439.9c-5.2,0-10.1,1-14.7,2.8c-0.5-75.3-51.8-140-125.5-157c-1.1,0-1.6,0-2.1,0
		c-0.5,0-0.5,0-1.1,0c-0.5,0-1.1,0-1.6,0s-0.5,0-1.1,0c-0.7,0-1.1,0.5-1.6,0.5h-0.5c-1.1,0.5-1.6,1.1-2.8,1.6
		c-20.9,14.8-45,22.5-70.7,22.5s-49.9-7.7-70.7-22.5c-0.5-0.5-1.6-1.1-2.8-1.6h-0.5c-0.5,0-1.1-0.5-2.1-0.5c-0.5,0-0.5,0-1.1,0
		c-0.5,0-1.1,0-1.6,0s-0.5,0-1.1,0c-0.5,0-1.1,0-1.6,0c0,0,0,0-0.5,0c-74,17-125.5,81.5-125.5,157.6c-5.1-2.3-10.6-3.4-16.5-3.4
		c-22.5,0-40.8,18.3-40.8,40.8c0,10.8,4.2,20.5,10.9,27.9c16.1-16.8,34.4-31.9,54-45.3c0.2-0.2,0.5-0.3,0.7-0.5
		c2.8-1.8,5.5-3.6,8.3-5.4l0,0c53.6-33.7,117-53.3,185-53.3c71.1,0,137.1,21.4,192.2,58c2.4,1.6,4.9,3.3,7.3,5.1
		c0.3,0.2,0.7,0.5,1,0.7c18.9,13.4,36.4,28.5,52.2,45.3c9.8-7.5,16.1-19.2,16.1-32.4C570.2,458.1,551.9,439.9,529.4,439.9z"/>
</g>
<g id="XMLID_50_" class="st0">
	<path id="XMLID_49_" class="st1" d="M378.7,200.6c60.4,0,115.4,0,175.8,0c17.2,0,17.4-26.7,0.2-26.7c-60.4,0-115.4,0-175.8,0
		C361.6,174,361.5,200.6,378.7,200.6z"/>
	<path id="XMLID_48_" class="st1" d="M554.7,222.8c-38,0-70.6,0-108.5,0c-17.2,0-17.4,26.7-0.2,26.7c38,0,70.5,0,108.5,0
		C571.7,249.5,571.8,222.8,554.7,222.8z"/>
	<path id="XMLID_47_" class="st1" d="M491.5,347.1c17.2,0,17.4-26.7,0.2-26.7c-37.6,0-75.2,0-112.8,0c-17.2,0-17.4,26.7-0.2,26.7
		C416.3,347.1,453.9,347.1,491.5,347.1z"/>
	<path id="XMLID_46_" class="st1" d="M554.7,271.6c-60.4,0-115.4,0-175.8,0c-17.2,0-17.4,26.7-0.2,26.7c60.4,0,115.4,0,175.8,0
		C571.7,298.3,571.8,271.6,554.7,271.6z"/>
	<path id="XMLID_45_" class="st1" d="M554.7,369.2c-60.4,0-115.4,0-175.8,0c-17.2,0-17.4,26.7-0.2,26.7c60.4,0,115.4,0,175.8,0
		C571.7,395.9,571.8,369.2,554.7,369.2z"/>
	<path id="XMLID_44_" class="st1" d="M422,475.7c-17.2-7.7-34.1-16.4-50.6-25.5c-27-14.8-52.3-31.7-71.5-56.4
		c-10.2-13.1-12.4-26.6-7.7-41.7c7.4-23.8,15.2-45.7,25.1-68.5c14.8-34,24.2-44.3,12.8-96.3c-16.2-73.7-114.4-86.6-164.3-31.8
		c-17.2,18.9-17.6,29.1-19.5,46.7c-1.8,17,7.7,24,2.2,31c-6.5,8.3-17.4,25.9-17,32.4c0.6,10,19.7,5.8,14.9,17.9
		c-4,10.2-0.8,8,1.4,12.1c0.8,1.5-5.7,4.6-3.1,8.3c11,15.9-1.8,21.7,5.6,30.1c9.7,11,30.9,1.4,35.9,5.6c6.3,5.2,8.5,26.7-0.4,43.1
		c-22.2,40.9-43.3,48.2-71,64.5c-21.8,12.8-44.5,19.4-60.8,28.7c0,0,0,0-0.1,0c-0.3,0.2-0.5,0.3-0.7,0.5c-2.7,2-3.1,5-2.2,7.6
		c0.6,2.5,2.5,4.6,5.7,5c0.2,0,0.3,0,0.5,0c0.1,0,0.2,0,0.4,0c116.7,0,244.2,0,360.9,0C425.1,488.9,428.8,478.7,422,475.7z"/>
</g>
</svg>
